IKResults
version=1
nRows=5
nColumns=63
inDegrees=yes

Units are S.I. units (second, meters, Newtons, ...)
If the header above contains a line with 'inDegrees', this indicates whether rotational values are in degrees (yes) or radians (no).

endheader
time	pelvis_tilt	pelvis_list	pelvis_rotation	pelvis_tx	pelvis_ty	pelvis_tz	hip_flexion_r	hip_adduction_r	hip_rotation_r	knee_angle_r	knee_angle_r_beta	ankle_angle_r	subtalar_angle_r	mtp_angle_r	hip_flexion_l	hip_adduction_l	hip_rotation_l	knee_angle_l	knee_angle_l_beta	ankle_angle_l	subtalar_angle_l	mtp_angle_l	L5_S1_Flex_Ext	L5_S1_Lat_Bending	L5_S1_axial_rotation	L4_L5_Flex_Ext	L4_L5_Lat_Bending	L4_L5_axial_rotation	L3_L4_Flex_Ext	L3_L4_Lat_Bending	L3_L4_axial_rotation	L2_L3_Flex_Ext	L2_L3_Lat_Bending	L2_L3_axial_rotation	L1_L2_Flex_Ext	L1_L2_Lat_Bending	L1_L2_axial_rotation	L1_T12_Flex_Ext	L1_T12_Lat_Bending	L1_T12_axial_rotation	Abs_r3	Abs_r2	Abs_r1	Abs_t1	Abs_t2	neck_flexion	neck_bending	neck_rotation	arm_flex_r	arm_add_r	arm_rot_r	elbow_flex_r	pro_sup_r	wrist_flex_r	wrist_dev_r	arm_flex_l	arm_add_l	arm_rot_l	elbow_flex_l	pro_sup_l	wrist_flex_l	wrist_dev_l
      0.03333333	    -10.36667374	     -0.45411778	      8.84616299	     -0.62332251	      0.92428687	      0.63801725	      3.02688237	     -2.50410849	    -19.39887705	      1.52045025	      0.02653686	     14.92778871	      2.47209700	      0.00000000	      6.26852626	     -0.23083050	      0.83683703	      7.73751934	      0.13504519	      0.00000000	      0.00000000	      0.00000000	      1.91302312	      0.06634159	     -0.99735457	      3.55267524	      0.08823432	     -1.05968923	      3.14290569	      0.16130295	     -1.05968923	      2.18639413	      0.16130295	     -0.87268525	      1.77643327	      0.13528378	     -0.81035059	      1.09310141	      0.10276313	     -0.74801593	     13.66453287	      0.75046937	     -5.54698691	      0.00000000	      0.00000000	     21.22579599	      1.85048395	      4.54755735	    -11.39933394	    -11.49776057	     10.29303915	     32.64942750	     89.99559364	      0.00000000	      0.00000000	    -13.30238373	    -10.92165038	      8.76135239	     34.84937122	     89.99559364	      0.00000000	      0.00000000
      0.06666667	    -10.35711013	     -0.46595591	      8.87037636	     -0.62340106	      0.92425630	      0.63772363	      3.02556361	     -2.51575556	    -19.40165067	      1.53093526	      0.02671986	     14.93422113	      2.46730492	      0.00000000	      6.28131708	     -0.22848733	      0.83756575	      7.74334129	      0.13514680	      0.00000000	      0.00000000	      0.00000000	      1.91084056	      0.06800936	     -0.99325638	      3.54862200	      0.09045245	     -1.05533490	      3.13931995	      0.16535796	     -1.05533490	      2.18389967	      0.16535796	     -0.86909933	      1.77440654	      0.13868469	     -0.80702081	      1.09185429	      0.10534650	     -0.74494228	     13.64894301	      0.76933550	     -5.52419399	      0.00000000	      0.00000000	     21.21826823	      1.85280784	      4.54457563	    -11.41840007	    -11.49229476	     10.29604742	     32.63633251	     89.99559364	      0.00000000	      0.00000000	    -13.30978918	    -10.92139685	      8.76376421	     34.84709206	     89.99559364	      0.00000000	      0.00000000
      0.10000000	    -10.31969936	     -0.50832716	      9.08382731	     -0.62387243	      0.92426317	      0.63676600	      3.00441686	     -2.52668025	    -19.58563424	      1.56382402	      0.02729388	     14.93110813	      2.32277946	      0.00000000	      6.55710098	     -0.21061868	      0.91194869	      8.31324648	      0.14509352	      0.00000000	      0.00000000	      0.00000000	      1.90287273	      0.06849058	     -0.97031190	      3.53382495	      0.09109247	     -1.03095639	      3.12622961	      0.16652799	     -1.03095639	      2.17479324	      0.16652799	     -0.84902291	      1.76700762	      0.13966598	     -0.78837842	      1.08730148	      0.10609190	     -0.72773393	     13.59202962	      0.77477910	     -5.39658369	      0.00000000	      0.00000000	     21.09150466	      1.83917815	      4.19013126	    -11.41051197	    -11.44258457	     10.22578170	     32.14720463	     89.99559364	      0.00000000	      0.00000000	    -12.94137203	    -10.87235144	      9.10113407	     34.44690649	     89.99559364	      0.00000000	      0.00000000
      0.13333333	    -10.25125954	     -0.58937418	      9.38199963	     -0.62445927	      0.92424451	      0.63545303	      2.97210781	     -2.52632402	    -19.83348977	      1.64757700	      0.02875564	     14.93019855	      2.16260245	      0.00000000	      6.86043598	     -0.21756102	      1.05014425	      8.95050158	      0.15621572	      0.00000000	      0.00000000	      0.00000000	      1.88950976	      0.07258073	     -0.95138106	      3.50900857	      0.09653238	     -1.01084238	      3.10427558	      0.17647280	     -1.01084238	      2.15952070	      0.17647280	     -0.83245843	      1.75459876	      0.14800663	     -0.77299711	      1.07966588	      0.11242756	     -0.71353580	     13.49657926	      0.82104777	     -5.29129605	      0.00000000	      0.00000000	     20.99736904	      1.75950247	      3.73778709	    -11.43590277	    -11.39807989	     10.10225504	     31.70678016	     89.99559364	      0.00000000	      0.00000000	    -12.53682397	    -10.91130367	      9.76776796	     34.06271946	     89.99559364	      0.00000000	      0.00000000
      0.16666667	    -10.15443499	     -0.70524151	      9.80625715	     -0.62516086	      0.92417608	      0.63368027	      2.90225989	     -2.50970930	    -20.21703786	      1.73505527	      0.03028243	     14.97587118	      1.99099433	      0.00000000	      7.23820102	     -0.22190365	      1.41307775	      9.76443508	      0.17042154	      0.00000000	      0.00000000	      0.00000000	      1.87158689	      0.07884207	     -0.92708309	      3.47572401	      0.10485995	     -0.98502578	      3.07483010	      0.19169660	     -0.98502578	      2.13903665	      0.19169660	     -0.81119770	      1.73795558	      0.16077474	     -0.75325501	      1.06942475	      0.12212636	     -0.69531232	     13.36855799	      0.89187723	     -5.15615801	      0.00000000	      0.00000000	     20.94032513	      1.57750499	      3.09365939	    -11.50976268	    -11.30542552	      9.83210313	     31.21008772	     89.99559364	      0.00000000	      0.00000000	    -11.94282400	    -11.06330260	     11.22977955	     33.58697939	     89.99559364	      0.00000000	      0.00000000
